Coordinates
version=1
nRows=11
nColumns=42
inDegrees=yes

Units are S.I. units (second, meters, Newtons, ...)
If the header above contains a line with 'inDegrees', this indicates whether rotational values are in degrees (yes) or radians (no).

endheader
time	pelvis_tilt	pelvis_list	pelvis_rotation	pelvis_tx	pelvis_ty	pelvis_tz	hip_flexion_r	hip_adduction_r	hip_rotation_r	knee_angle_r	knee_adduction_r	knee_angle_r_beta	ankle_angle_r	subtalar_angle_r	mtp_angle_r	hip_flexion_l	hip_adduction_l	hip_rotation_l	knee_angle_l	knee_adduction_l	knee_angle_l_beta	ankle_angle_l	subtalar_angle_l	mtp_angle_l	lumbar_extension	lumbar_bending	lumbar_rotation	arm_flex_r	arm_add_r	arm_rot_r	elbow_flex_r	pro_sup_r	wrist_flex_r	wrist_dev_r	arm_flex_l	arm_add_l	arm_rot_l	elbow_flex_l	pro_sup_l	wrist_flex_l	wrist_dev_l
      2.10000000	      1.15368418	     -0.70031261	      2.80803455	     -0.80183390	      0.86513922	      0.24166464	     19.38097092	      6.04200124	    -37.83650461	     30.21029534	    -22.26537802	      0.52726912	     22.01955860	     26.94820062	     -7.50058978	     29.99805398	      1.92185070	      0.13473833	     77.21520691	     -1.73691477	      1.34765959	      9.32958377	    -18.08629750	     -7.50058978	    -20.87797604	      0.90606180	      1.52668565	     11.81695033	    -13.97467420	      9.72108186	     36.82342129	     90.00000001	      0.00000000	      0.00000000	      4.15367530	    -16.25594848	     14.63702828	     36.73107079	     90.00000001	      0.00000000	      0.00000000
      2.11000000	      1.35814114	     -0.60309427	      2.33753726	     -0.79047751	      0.86599836	      0.24209186	     17.98667303	      5.93907906	    -38.21495326	     29.58055820	    -22.19654038	      0.51627814	     23.15817589	     29.50186282	     -7.50056300	     31.04615306	      1.95396016	     -0.09819233	     75.43535280	     -1.60853916	      1.31659528	      9.34822711	    -18.15978597	     -7.50056300	    -21.06950478	      0.70763904	      2.17499750	     12.01841002	    -14.78156013	     10.21832050	     38.58661394	     90.00000001	      0.00000000	      0.00000000	      3.36209255	    -15.84384445	     14.22711744	     35.92608661	     90.00000001	      0.00000000	      0.00000000
      2.12000000	      1.53362826	     -0.52482629	      1.86757281	     -0.77906926	      0.86659660	      0.24253597	     16.65254560	      5.91530353	    -38.39459219	     29.03559292	    -22.13385649	      0.50676670	     23.85184751	     30.80668825	     -7.50053556	     32.01149725	      1.94478472	     -0.64830741	     73.32448531	     -1.85520454	      1.27975369	      9.46607569	    -18.08403350	     -7.50053556	    -21.21317494	      0.53347297	      2.70757036	     12.42067762	    -15.46801699	     10.79857589	     39.91536952	     90.00000001	      0.00000000	      0.00000000	      2.40917073	    -15.49574969	     13.73080744	     35.33982179	     90.00000001	      0.00000000	      0.00000000
      2.13000000	      1.74146358	     -0.46101031	      1.41383810	     -0.76768614	      0.86701875	      0.24297503	     15.29917286	      5.88865419	    -38.48956295	     28.54904342	    -22.03002639	      0.49827481	     24.61193259	     31.85252152	     -7.50051203	     32.81571837	      1.88534443	     -1.29731890	     70.89235616	     -2.24448046	      1.23730503	      9.49020876	    -18.04262586	     -7.50051203	    -21.39397509	      0.35210781	      3.25026727	     12.83417268	    -16.10193368	     11.22989828	     41.16469989	     90.00000001	      0.00000000	      0.00000000	      1.52458971	    -15.19794814	     13.23364124	     34.79906138	     90.00000001	      0.00000000	      0.00000000
      2.14000000	      1.81908725	     -0.41244820	      1.00266232	     -0.75637026	      0.86701548	      0.24338454	     14.16338396	      5.93556080	    -38.43414932	     28.19295792	    -21.99907976	      0.49205994	     24.95815513	     31.70167602	     -7.50050375	     33.62418457	      1.84893907	     -1.57476860	     68.16329238	     -2.40884058	      1.18967388	      9.58229873	    -17.97695665	     -7.50050375	    -21.41362719	      0.18942681	      3.68420102	     13.42728966	    -16.46307428	     11.22579540	     41.81499783	     90.00000001	      0.00000000	      0.00000000	      0.53867066	    -15.00805315	     13.13728195	     34.45805923	     90.00000001	      0.00000000	      0.00000000
      2.15000000	      2.15097027	     -0.37145019	      0.53801231	     -0.74484887	      0.86719084	      0.24369548	     12.67440154	      5.84251199	    -38.61457735	     27.74875415	    -21.88325243	      0.48430712	     26.10462556	     33.50749833	     -7.50048237	     34.00364166	      1.74536167	     -3.04670920	     65.06680137	     -3.66355372	      1.13562992	      9.15579809	    -17.91050454	     -7.50048237	    -21.74235644	      0.05933388	      4.27908492	     13.66316329	    -17.26133708	     11.72172211	     43.62047309	     90.00000001	      0.00000000	      0.00000000	     -0.23990684	    -14.58892542	     12.39033999	     33.74402782	     90.00000001	      0.00000000	      0.00000000
      2.16000000	      2.20860960	     -0.38799117	      0.18938089	     -0.73360219	      0.86670427	      0.24402011	     11.61563268	      5.92655868	    -38.60304430	     27.46603254	    -21.90273557	      0.47937270	     26.42045927	     33.34459787	     -7.50047403	     34.56897932	      1.65524041	     -3.39202345	     61.79106260	     -4.06110828	      1.07845749	      9.15536020	    -17.73916303	     -7.50047403	    -21.76348308	     -0.03413231	      4.66906172	     14.24063968	    -17.60297832	     11.75221436	     44.30059066	     90.00000001	      0.00000000	      0.00000000	     -1.18129066	    -14.39707555	     12.21725255	     33.41017466	     90.00000001	      0.00000000	      0.00000000
      2.17000000	      2.48695752	     -0.42677479	     -0.20624684	     -0.72216283	      0.86630724	      0.24420289	     10.26404361	      5.90288536	    -38.76428729	     27.17616972	    -21.84518252	      0.47431364	     27.45289951	     34.77664368	     -7.50045313	     34.80868239	      1.47333816	     -5.09828562	     58.26826985	     -5.55661583	      1.01697316	      8.45545088	    -17.47452472	     -7.50045313	    -22.03982212	     -0.06166669	      5.14940724	     14.52840667	    -18.38440953	     12.29756058	     45.93867079	     90.00000001	      0.00000000	      0.00000000	     -1.94441328	    -13.90255251	     11.30075706	     32.75519947	     90.00000001	      0.00000000	      0.00000000
      2.18000000	      2.63560692	     -0.53722506	     -0.50874873	     -0.71090305	      0.86550452	      0.24433804	      9.12346313	      6.02185093	    -38.83770949	     26.95162455	    -21.87310507	      0.47039459	     27.99329912	     35.14881079	     -7.50039647	     35.04807441	      1.27821448	     -6.00365540	     54.57181298	     -6.45110760	      0.95245782	      8.19178942	    -17.00394499	     -7.50039647	    -22.18584594	     -0.02154172	      5.46483353	     15.01862353	    -19.15329824	     13.42418398	     47.23280664	     90.00000001	      0.00000000	      0.00000000	     -2.74561724	    -13.17368908	      9.04072654	     32.16066385	     90.00000001	      0.00000000	      0.00000000
      2.19000000	      2.70636116	     -0.67041126	     -0.72881204	     -0.69969892	      0.86441238	      0.24440230	      8.08641663	      6.19516806	    -38.84955168	     26.78476636	    -21.89914772	      0.46748236	     28.39288648	     34.82646473	     -7.50038862	     35.24910511	      1.09283574	     -6.58831231	     50.72938910	     -7.08575281	      0.88539487	      7.93707244	    -16.59069526	     -7.50038862	    -22.23743675	      0.05276135	      5.70820137	     15.64015394	    -19.38497105	     13.31454952	     47.77051887	     90.00000001	      0.00000000	      0.00000000	     -3.59355515	    -13.04737922	      8.94001223	     31.88398161	     90.00000001	      0.00000000	      0.00000000
      2.20000000	      2.89213077	     -0.85181512	     -0.97747982	     -0.68842092	      0.86328616	      0.24430463	      6.94227008	      6.33007489	    -38.95177719	     26.69852882	    -21.91506400	      0.46597723	     29.21875761	     35.43613807	     -7.50036999	     35.30941286	      0.78920715	     -8.04314723	     46.86362844	     -8.21260877	      0.81792462	      7.23334117	    -15.64260587	     -7.50036999	    -22.43799357	      0.21172912	      6.00236380	     16.15635181	    -19.84708352	     13.45824493	     48.78095780	     90.00000001	      0.00000000	      0.00000000	     -4.32882678	    -12.64106793	      8.42682610	     31.38539764	     90.00000001	      0.00000000	      0.00000000
